<svg width="228" height="70" viewBox="0 0 228 70" fill="none" xmlns="http://www.w3.org/2000/svg">
<rect width="228" height="70" fill="black"/>
<path d="M29.94 45.21C28.56 45.21 27.32 44.97 26.22 44.49C25.14 43.99 24.29 43.31 23.67 42.45C23.05 41.57 22.73 40.56 22.71 39.42H25.62C25.72 40.4 26.12 41.23 26.82 41.91C27.54 42.57 28.58 42.9 29.94 42.9C31.24 42.9 32.26 42.58 33 41.94C33.76 41.28 34.14 40.44 34.14 39.42C34.14 38.62 33.92 37.97 33.48 37.47C33.04 36.97 32.49 36.59 31.83 36.33C31.17 36.07 30.28 35.79 29.16 35.49C27.78 35.13 26.67 34.77 25.83 34.41C25.01 34.05 24.3 33.49 23.7 32.73C23.12 31.95 22.83 30.91 22.83 29.61C22.83 28.47 23.12 27.46 23.7 26.58C24.28 25.7 25.09 25.02 26.13 24.54C27.19 24.06 28.4 23.82 29.76 23.82C31.72 23.82 33.32 24.31 34.56 25.29C35.82 26.27 36.53 27.57 36.69 29.19H33.69C33.59 28.39 33.17 27.69 32.43 27.09C31.69 26.47 30.71 26.16 29.49 26.16C28.35 26.16 27.42 26.46 26.7 27.06C25.98 27.64 25.62 28.46 25.62 29.52C25.62 30.28 25.83 30.9 26.25 31.38C26.69 31.86 27.22 32.23 27.84 32.49C28.48 32.73 29.37 33.01 30.51 33.33C31.89 33.71 33 34.09 33.84 34.47C34.68 34.83 35.4 35.4 36 36.18C36.6 36.94 36.9 37.98 36.9 39.3C36.9 40.32 36.63 41.28 36.09 42.18C35.55 43.08 34.75 43.81 33.69 44.37C32.63 44.93 31.38 45.21 29.94 45.21ZM44.2474 30.81V40.5C44.2474 41.3 44.4174 41.87 44.7574 42.21C45.0974 42.53 45.6874 42.69 46.5274 42.69H48.5374V45H46.0774C44.5574 45 43.4174 44.65 42.6574 43.95C41.8974 43.25 41.5174 42.1 41.5174 40.5V30.81H39.3874V28.56H41.5174V24.42H44.2474V28.56H48.5374V30.81H44.2474ZM50.8252 36.72C50.8252 35.04 51.1652 33.57 51.8452 32.31C52.5252 31.03 53.4552 30.04 54.6352 29.34C55.8352 28.64 57.1652 28.29 58.6252 28.29C60.0652 28.29 61.3152 28.6 62.3752 29.22C63.4352 29.84 64.2252 30.62 64.7452 31.56V28.56H67.5052V45H64.7452V41.94C64.2052 42.9 63.3952 43.7 62.3152 44.34C61.2552 44.96 60.0152 45.27 58.5952 45.27C57.1352 45.27 55.8152 44.91 54.6352 44.19C53.4552 43.47 52.5252 42.46 51.8452 41.16C51.1652 39.86 50.8252 38.38 50.8252 36.72ZM64.7452 36.75C64.7452 35.51 64.4952 34.43 63.9952 33.51C63.4952 32.59 62.8152 31.89 61.9552 31.41C61.1152 30.91 60.1852 30.66 59.1652 30.66C58.1452 30.66 57.2152 30.9 56.3752 31.38C55.5352 31.86 54.8652 32.56 54.3652 33.48C53.8652 34.4 53.6152 35.48 53.6152 36.72C53.6152 37.98 53.8652 39.08 54.3652 40.02C54.8652 40.94 55.5352 41.65 56.3752 42.15C57.2152 42.63 58.1452 42.87 59.1652 42.87C60.1852 42.87 61.1152 42.63 61.9552 42.15C62.8152 41.65 63.4952 40.94 63.9952 40.02C64.4952 39.08 64.7452 37.99 64.7452 36.75ZM74.8486 31.23C75.3286 30.29 76.0086 29.56 76.8886 29.04C77.7886 28.52 78.8786 28.26 80.1586 28.26V31.08H79.4386C76.3786 31.08 74.8486 32.74 74.8486 36.06V45H72.1186V28.56H74.8486V31.23ZM86.64 30.81V40.5C86.64 41.3 86.81 41.87 87.15 42.21C87.49 42.53 88.08 42.69 88.92 42.69H90.93V45H88.47C86.95 45 85.81 44.65 85.05 43.95C84.29 43.25 83.91 42.1 83.91 40.5V30.81H81.78V28.56H83.91V24.42H86.64V28.56H90.93V30.81H86.64ZM128.516 24.09L122.456 45H119.396L114.536 28.17L109.496 45L106.466 45.03L100.616 24.09H103.526L108.086 41.82L113.126 24.09H116.186L120.986 41.76L125.576 24.09H128.516ZM134.233 31.23C134.713 30.29 135.393 29.56 136.273 29.04C137.173 28.52 138.263 28.26 139.543 28.26V31.08H138.823C135.763 31.08 134.233 32.74 134.233 36.06V45H131.503V28.56H134.233V31.23ZM144.105 25.89C143.585 25.89 143.145 25.71 142.785 25.35C142.425 24.99 142.245 24.55 142.245 24.03C142.245 23.51 142.425 23.07 142.785 22.71C143.145 22.35 143.585 22.17 144.105 22.17C144.605 22.17 145.025 22.35 145.365 22.71C145.725 23.07 145.905 23.51 145.905 24.03C145.905 24.55 145.725 24.99 145.365 25.35C145.025 25.71 144.605 25.89 144.105 25.89ZM145.425 28.56V45H142.695V28.56H145.425ZM153.408 30.81V40.5C153.408 41.3 153.578 41.87 153.918 42.21C154.258 42.53 154.848 42.69 155.688 42.69H157.698V45H155.238C153.718 45 152.578 44.65 151.818 43.95C151.058 43.25 150.678 42.1 150.678 40.5V30.81H148.548V28.56H150.678V24.42H153.408V28.56H157.698V30.81H153.408ZM162.415 25.89C161.895 25.89 161.455 25.71 161.095 25.35C160.735 24.99 160.555 24.55 160.555 24.03C160.555 23.51 160.735 23.07 161.095 22.71C161.455 22.35 161.895 22.17 162.415 22.17C162.915 22.17 163.335 22.35 163.675 22.71C164.035 23.07 164.215 23.51 164.215 24.03C164.215 24.55 164.035 24.99 163.675 25.35C163.335 25.71 162.915 25.89 162.415 25.89ZM163.735 28.56V45H161.005V28.56H163.735ZM176.398 28.26C178.398 28.26 180.018 28.87 181.258 30.09C182.498 31.29 183.118 33.03 183.118 35.31V45H180.418V35.7C180.418 34.06 180.008 32.81 179.188 31.95C178.368 31.07 177.248 30.63 175.828 30.63C174.388 30.63 173.238 31.08 172.378 31.98C171.538 32.88 171.118 34.19 171.118 35.91V45H168.388V28.56H171.118V30.9C171.658 30.06 172.388 29.41 173.308 28.95C174.248 28.49 175.278 28.26 176.398 28.26ZM194.358 28.29C195.778 28.29 197.018 28.6 198.078 29.22C199.158 29.84 199.958 30.62 200.478 31.56V28.56H203.238V45.36C203.238 46.86 202.918 48.19 202.278 49.35C201.638 50.53 200.718 51.45 199.518 52.11C198.338 52.77 196.958 53.1 195.378 53.1C193.218 53.1 191.418 52.59 189.978 51.57C188.538 50.55 187.688 49.16 187.428 47.4H190.128C190.428 48.4 191.048 49.2 191.988 49.8C192.928 50.42 194.058 50.73 195.378 50.73C196.878 50.73 198.098 50.26 199.038 49.32C199.998 48.38 200.478 47.06 200.478 45.36V41.91C199.938 42.87 199.138 43.67 198.078 44.31C197.018 44.95 195.778 45.27 194.358 45.27C192.898 45.27 191.568 44.91 190.368 44.19C189.188 43.47 188.258 42.46 187.578 41.16C186.898 39.86 186.558 38.38 186.558 36.72C186.558 35.04 186.898 33.57 187.578 32.31C188.258 31.03 189.188 30.04 190.368 29.34C191.568 28.64 192.898 28.29 194.358 28.29ZM200.478 36.75C200.478 35.51 200.228 34.43 199.728 33.51C199.228 32.59 198.548 31.89 197.688 31.41C196.848 30.91 195.918 30.66 194.898 30.66C193.878 30.66 192.948 30.9 192.108 31.38C191.268 31.86 190.598 32.56 190.098 33.48C189.598 34.4 189.348 35.48 189.348 36.72C189.348 37.98 189.598 39.08 190.098 40.02C190.598 40.94 191.268 41.65 192.108 42.15C192.948 42.63 193.878 42.87 194.898 42.87C195.918 42.87 196.848 42.63 197.688 42.15C198.548 41.65 199.228 40.94 199.728 40.02C200.228 39.08 200.478 37.99 200.478 36.75Z" fill="white"/>
</svg>
