<svg width="208" height="66" viewBox="0 0 208 66" fill="none" xmlns="http://www.w3.org/2000/svg">
<mask id="path-1-inside-1_2208_2" fill="white">
<path d="M141.846 0H207.846V66H141.846V0Z"/>
</mask>
<path d="M207.846 0H209.846V-2H207.846V0ZM207.846 66V68H209.846V66H207.846ZM141.846 2H207.846V-2H141.846V2ZM205.846 0V66H209.846V0H205.846ZM207.846 64H141.846V68H207.846V64Z" fill="#525252" mask="url(#path-1-inside-1_2208_2)"/>
<line x1="142.846" x2="142.846" y2="17.8491" stroke="#525252" stroke-width="2"/>
<line x1="142.846" y1="48.1509" x2="142.846" y2="66" stroke="#525252" stroke-width="2"/>
<path d="M33.858 19.27C34.012 19.27 34.144 19.325 34.254 19.435C34.386 19.523 34.474 19.644 34.518 19.798C34.518 19.93 34.507 20.029 34.485 20.095L26.664 45.637C26.554 46.011 26.301 46.198 25.905 46.198C25.553 46.198 25.3 46 25.146 45.604L19.14 30.193L12.21 45.736C12.034 46.11 11.781 46.297 11.451 46.297C11.099 46.297 10.846 46.099 10.692 45.703L2.013 20.095C1.991 20.051 1.98 19.985 1.98 19.897C2.002 19.721 2.068 19.578 2.178 19.468C2.31 19.336 2.464 19.27 2.64 19.27C2.772 19.27 2.893 19.325 3.003 19.435C3.135 19.523 3.223 19.633 3.267 19.765L11.451 43.657L11.55 43.987L11.649 43.657L18.414 28.312L15.411 20.59C15.301 20.326 15.246 20.084 15.246 19.864C15.246 19.688 15.29 19.556 15.378 19.468C15.466 19.358 15.576 19.303 15.708 19.303C16.06 19.303 16.313 19.501 16.467 19.897L25.773 43.525L25.839 43.822L25.905 43.525L33.231 19.765C33.341 19.435 33.55 19.27 33.858 19.27ZM54.2997 45.01C54.5857 45.208 54.7287 45.417 54.7287 45.637C54.7287 45.835 54.6627 45.989 54.5307 46.099C54.4207 46.231 54.2777 46.297 54.1017 46.297C53.9917 46.297 53.8927 46.275 53.8047 46.231C53.1887 45.945 52.6717 45.329 52.2537 44.383C51.8357 43.437 51.5277 42.326 51.3297 41.05C51.2637 40.544 51.1867 39.818 51.0987 38.872C51.0327 37.904 50.9887 37.123 50.9667 36.529C50.9227 35.517 50.5487 34.659 49.8447 33.955C49.1627 33.251 48.3377 32.734 47.3697 32.404C46.4017 32.074 45.4887 31.909 44.6307 31.909H40.4727V45.373C40.4727 45.549 40.4067 45.703 40.2747 45.835C40.1427 45.967 39.9887 46.033 39.8127 46.033C39.6367 46.033 39.4827 45.967 39.3507 45.835C39.2187 45.703 39.1527 45.549 39.1527 45.373V20.392C39.1527 19.886 39.4167 19.622 39.9447 19.6C40.6927 19.578 41.7267 19.567 43.0467 19.567C44.3667 19.545 45.4557 19.534 46.3137 19.534C48.5577 19.534 50.3067 20.062 51.5607 21.118C52.8367 22.152 53.4747 23.648 53.4747 25.606C53.4747 26.596 53.2217 27.52 52.7157 28.378C52.2097 29.214 51.5167 29.907 50.6367 30.457C49.7787 31.007 48.8217 31.337 47.7657 31.447C49.0417 31.843 50.0977 32.448 50.9337 33.262C51.7697 34.054 52.2207 35.099 52.2867 36.397C52.3747 38.575 52.4957 40.082 52.6497 40.918C52.8477 42.106 53.0567 43.008 53.2767 43.624C53.5187 44.24 53.8597 44.702 54.2997 45.01ZM40.4727 30.589H45.4887C47.4467 30.589 49.0417 30.171 50.2737 29.335C51.5277 28.477 52.1547 27.234 52.1547 25.606C52.1547 24.022 51.6487 22.834 50.6367 22.042C49.6467 21.25 48.2057 20.854 46.3137 20.854C45.4997 20.854 44.4767 20.865 43.2447 20.887C42.0347 20.887 41.1107 20.898 40.4727 20.92V30.589ZM61.3388 45.076C61.3388 45.252 61.2728 45.406 61.1408 45.538C61.0088 45.67 60.8548 45.736 60.6788 45.736C60.5028 45.736 60.3488 45.67 60.2168 45.538C60.0848 45.406 60.0188 45.252 60.0188 45.076V20.194C60.0188 20.018 60.0848 19.864 60.2168 19.732C60.3488 19.6 60.5028 19.534 60.6788 19.534C60.8548 19.534 61.0088 19.6 61.1408 19.732C61.2728 19.864 61.3388 20.018 61.3388 20.194V45.076ZM82.3015 19.6C82.4775 19.6 82.6315 19.666 82.7635 19.798C82.8955 19.93 82.9615 20.084 82.9615 20.26C82.9615 20.436 82.8955 20.59 82.7635 20.722C82.6315 20.854 82.4775 20.92 82.3015 20.92H75.3055V45.076C75.3055 45.252 75.2395 45.406 75.1075 45.538C74.9755 45.67 74.8215 45.736 74.6455 45.736C74.4695 45.736 74.3155 45.67 74.1835 45.538C74.0515 45.406 73.9855 45.252 73.9855 45.076V20.92H66.9565C66.7805 20.92 66.6265 20.854 66.4945 20.722C66.3625 20.59 66.2965 20.436 66.2965 20.26C66.2965 20.084 66.3625 19.93 66.4945 19.798C66.6265 19.666 66.7805 19.6 66.9565 19.6H82.3015ZM107.793 41.809C107.969 41.809 108.123 41.875 108.255 42.007C108.387 42.139 108.453 42.293 108.453 42.469C108.453 42.667 108.376 42.843 108.222 42.997C107.166 44.053 105.813 44.878 104.163 45.472C102.513 46.044 100.852 46.33 99.18 46.33C96.804 46.33 94.659 45.769 92.745 44.647C90.831 43.503 89.324 41.93 88.224 39.928C87.146 37.926 86.607 35.649 86.607 33.097C86.607 32.767 86.629 32.272 86.673 31.612C86.871 29.302 87.531 27.234 88.653 25.408C89.797 23.56 91.282 22.119 93.108 21.085C94.956 20.029 96.98 19.501 99.18 19.501C100.984 19.501 102.59 19.776 103.998 20.326C105.428 20.854 106.704 21.756 107.826 23.032C108.002 23.252 108.09 23.428 108.09 23.56C108.09 23.736 108.024 23.89 107.892 24.022C107.76 24.154 107.595 24.22 107.397 24.22C107.221 24.22 107.078 24.165 106.968 24.055C105.934 22.867 104.79 22.031 103.536 21.547C102.282 21.063 100.83 20.821 99.18 20.821C97.222 20.821 95.429 21.283 93.801 22.207C92.173 23.131 90.842 24.418 89.808 26.068C88.796 27.696 88.191 29.544 87.993 31.612H101.424C101.6 31.612 101.754 31.678 101.886 31.81C102.018 31.942 102.084 32.096 102.084 32.272C102.084 32.448 102.018 32.602 101.886 32.734C101.754 32.866 101.6 32.932 101.424 32.932H87.927V33.097C87.927 35.385 88.411 37.442 89.379 39.268C90.369 41.072 91.711 42.48 93.405 43.492C95.121 44.504 97.046 45.01 99.18 45.01C101.006 45.01 102.623 44.768 104.031 44.284C105.461 43.778 106.583 43.008 107.397 41.974C107.463 41.864 107.595 41.809 107.793 41.809Z" fill="black"/>
<path d="M119.887 19.534C122.131 19.534 123.88 20.073 125.134 21.151C126.41 22.207 127.048 23.692 127.048 25.606C127.048 27.586 126.41 29.137 125.134 30.259C123.88 31.359 122.131 31.909 119.887 31.909H114.046V45.373C114.046 45.549 113.98 45.703 113.848 45.835C113.716 45.967 113.562 46.033 113.386 46.033C113.21 46.033 113.056 45.967 112.924 45.835C112.792 45.703 112.726 45.549 112.726 45.373V20.392C112.726 19.886 112.99 19.622 113.518 19.6C114.266 19.578 115.3 19.567 116.62 19.567C117.94 19.545 119.029 19.534 119.887 19.534ZM119.953 30.589C121.779 30.589 123.198 30.149 124.21 29.269C125.222 28.389 125.728 27.168 125.728 25.606C125.728 24.11 125.211 22.944 124.177 22.108C123.143 21.272 121.713 20.854 119.887 20.854C119.073 20.854 118.05 20.865 116.818 20.887C115.608 20.887 114.684 20.898 114.046 20.92V30.589H119.953ZM142.944 46.66C140.568 46.66 138.423 46.066 136.509 44.878C134.595 43.69 133.088 42.062 131.988 39.994C130.888 37.904 130.338 35.583 130.338 33.031C130.338 30.479 130.888 28.169 131.988 26.101C133.088 24.011 134.595 22.372 136.509 21.184C138.445 19.996 140.59 19.402 142.944 19.402C145.32 19.402 147.465 19.996 149.379 21.184C151.293 22.372 152.8 24.011 153.9 26.101C155 28.169 155.55 30.479 155.55 33.031C155.55 35.583 155 37.904 153.9 39.994C152.8 42.062 151.282 43.69 149.346 44.878C147.432 46.066 145.298 46.66 142.944 46.66ZM142.944 45.34C145.056 45.34 146.97 44.812 148.686 43.756C150.424 42.678 151.777 41.204 152.745 39.334C153.735 37.442 154.23 35.341 154.23 33.031C154.23 30.721 153.735 28.631 152.745 26.761C151.777 24.869 150.424 23.395 148.686 22.339C146.97 21.261 145.056 20.722 142.944 20.722C140.832 20.722 138.907 21.261 137.169 22.339C135.453 23.395 134.1 24.869 133.11 26.761C132.142 28.631 131.658 30.721 131.658 33.031C131.658 35.341 132.142 37.442 133.11 39.334C134.1 41.204 135.453 42.678 137.169 43.756C138.907 44.812 140.832 45.34 142.944 45.34ZM167.885 46.297C166.411 46.297 165.014 45.934 163.694 45.208C162.396 44.46 161.329 43.459 160.493 42.205C160.427 42.095 160.394 41.974 160.394 41.842C160.394 41.644 160.449 41.479 160.559 41.347C160.691 41.215 160.834 41.149 160.988 41.149C161.296 41.149 161.549 41.303 161.747 41.611C162.473 42.711 163.331 43.536 164.321 44.086C165.311 44.636 166.499 44.911 167.885 44.911C169.183 44.911 170.305 44.669 171.251 44.185C172.219 43.701 172.956 43.063 173.462 42.271C173.99 41.457 174.254 40.566 174.254 39.598C174.254 38.388 173.737 37.189 172.703 36.001C171.669 34.791 170.129 33.713 168.083 32.767C166.323 31.953 164.937 31.194 163.925 30.49C162.935 29.764 162.209 29.005 161.747 28.213C161.307 27.399 161.087 26.475 161.087 25.441C161.087 24.297 161.395 23.252 162.011 22.306C162.649 21.338 163.507 20.579 164.585 20.029C165.663 19.479 166.851 19.204 168.149 19.204C169.733 19.204 171.097 19.512 172.241 20.128C173.407 20.744 174.43 21.679 175.31 22.933C175.398 23.043 175.442 23.175 175.442 23.329C175.442 23.505 175.387 23.659 175.277 23.791C175.189 23.923 175.068 23.989 174.914 23.989C174.584 23.989 174.32 23.824 174.122 23.494C172.912 21.536 170.921 20.557 168.149 20.557C167.049 20.557 166.059 20.777 165.179 21.217C164.299 21.635 163.617 22.218 163.133 22.966C162.649 23.714 162.407 24.539 162.407 25.441C162.407 26.607 162.88 27.652 163.826 28.576C164.794 29.478 166.389 30.446 168.611 31.48C171.097 32.624 172.879 33.856 173.957 35.176C175.035 36.496 175.574 37.97 175.574 39.598C175.574 40.874 175.255 42.018 174.617 43.03C174.001 44.042 173.11 44.845 171.944 45.439C170.778 46.011 169.425 46.297 167.885 46.297ZM195.449 19.6C195.625 19.6 195.779 19.666 195.911 19.798C196.043 19.93 196.109 20.084 196.109 20.26C196.109 20.436 196.043 20.59 195.911 20.722C195.779 20.854 195.625 20.92 195.449 20.92H188.453V45.076C188.453 45.252 188.387 45.406 188.255 45.538C188.123 45.67 187.969 45.736 187.793 45.736C187.617 45.736 187.463 45.67 187.331 45.538C187.199 45.406 187.133 45.252 187.133 45.076V20.92H180.104C179.928 20.92 179.774 20.854 179.642 20.722C179.51 20.59 179.444 20.436 179.444 20.26C179.444 20.084 179.51 19.93 179.642 19.798C179.774 19.666 179.928 19.6 180.104 19.6H195.449Z" fill="#525252"/>
</svg>
