<svg width="228" height="70" viewBox="0 0 228 70" fill="none" xmlns="http://www.w3.org/2000/svg">
<rect x="1" y="1" width="226" height="68" stroke="black" stroke-width="2"/>
<path d="M21.04 26.31V33.3H28.66V35.55H21.04V42.75H29.56V45H18.31V24.06H29.56V26.31H21.04ZM42.2709 45L38.3709 38.88L34.6209 45H31.7709L37.0809 36.84L31.7709 28.56H34.8609L38.7609 34.65L42.4809 28.56H45.3309L40.0509 36.69L45.3609 45H42.2709ZM50.7763 31.59C51.3163 30.65 52.1163 29.87 53.1763 29.25C54.2563 28.61 55.5063 28.29 56.9263 28.29C58.3863 28.29 59.7063 28.64 60.8863 29.34C62.0863 30.04 63.0263 31.03 63.7063 32.31C64.3863 33.57 64.7263 35.04 64.7263 36.72C64.7263 38.38 64.3863 39.86 63.7063 41.16C63.0263 42.46 62.0863 43.47 60.8863 44.19C59.7063 44.91 58.3863 45.27 56.9263 45.27C55.5263 45.27 54.2863 44.96 53.2063 44.34C52.1463 43.7 51.3363 42.91 50.7763 41.97V52.8H48.0463V28.56H50.7763V31.59ZM61.9363 36.72C61.9363 35.48 61.6863 34.4 61.1863 33.48C60.6863 32.56 60.0063 31.86 59.1463 31.38C58.3063 30.9 57.3763 30.66 56.3563 30.66C55.3563 30.66 54.4263 30.91 53.5663 31.41C52.7263 31.89 52.0463 32.6 51.5263 33.54C51.0263 34.46 50.7763 35.53 50.7763 36.75C50.7763 37.99 51.0263 39.08 51.5263 40.02C52.0463 40.94 52.7263 41.65 53.5663 42.15C54.4263 42.63 55.3563 42.87 56.3563 42.87C57.3763 42.87 58.3063 42.63 59.1463 42.15C60.0063 41.65 60.6863 40.94 61.1863 40.02C61.6863 39.08 61.9363 37.98 61.9363 36.72ZM71.0498 22.8V45H68.3198V22.8H71.0498ZM82.8726 45.27C81.3326 45.27 79.9326 44.92 78.6726 44.22C77.4326 43.52 76.4526 42.53 75.7326 41.25C75.0326 39.95 74.6826 38.45 74.6826 36.75C74.6826 35.07 75.0426 33.59 75.7626 32.31C76.5026 31.01 77.5026 30.02 78.7626 29.34C80.0226 28.64 81.4326 28.29 82.9926 28.29C84.5526 28.29 85.9626 28.64 87.2226 29.34C88.4826 30.02 89.4726 31 90.1926 32.28C90.9326 33.56 91.3026 35.05 91.3026 36.75C91.3026 38.45 90.9226 39.95 90.1626 41.25C89.4226 42.53 88.4126 43.52 87.1326 44.22C85.8526 44.92 84.4326 45.27 82.8726 45.27ZM82.8726 42.87C83.8526 42.87 84.7726 42.64 85.6326 42.18C86.4926 41.72 87.1826 41.03 87.7026 40.11C88.2426 39.19 88.5126 38.07 88.5126 36.75C88.5126 35.43 88.2526 34.31 87.7326 33.39C87.2126 32.47 86.5326 31.79 85.6926 31.35C84.8526 30.89 83.9426 30.66 82.9626 30.66C81.9626 30.66 81.0426 30.89 80.2026 31.35C79.3826 31.79 78.7226 32.47 78.2226 33.39C77.7226 34.31 77.4726 35.43 77.4726 36.75C77.4726 38.09 77.7126 39.22 78.1926 40.14C78.6926 41.06 79.3526 41.75 80.1726 42.21C80.9926 42.65 81.8926 42.87 82.8726 42.87ZM97.622 31.23C98.102 30.29 98.782 29.56 99.662 29.04C100.562 28.52 101.652 28.26 102.932 28.26V31.08H102.212C99.152 31.08 97.622 32.74 97.622 36.06V45H94.892V28.56H97.622V31.23ZM121.083 36.15C121.083 36.67 121.053 37.22 120.993 37.8H107.853C107.953 39.42 108.503 40.69 109.503 41.61C110.523 42.51 111.753 42.96 113.193 42.96C114.373 42.96 115.353 42.69 116.133 42.15C116.933 41.59 117.493 40.85 117.813 39.93H120.753C120.313 41.51 119.433 42.8 118.113 43.8C116.793 44.78 115.153 45.27 113.193 45.27C111.633 45.27 110.233 44.92 108.993 44.22C107.773 43.52 106.813 42.53 106.113 41.25C105.413 39.95 105.063 38.45 105.063 36.75C105.063 35.05 105.403 33.56 106.083 32.28C106.763 31 107.713 30.02 108.933 29.34C110.173 28.64 111.593 28.29 113.193 28.29C114.753 28.29 116.133 28.63 117.333 29.31C118.533 29.99 119.453 30.93 120.093 32.13C120.753 33.31 121.083 34.65 121.083 36.15ZM118.263 35.58C118.263 34.54 118.033 33.65 117.573 32.91C117.113 32.15 116.483 31.58 115.683 31.2C114.903 30.8 114.033 30.6 113.073 30.6C111.693 30.6 110.513 31.04 109.533 31.92C108.573 32.8 108.023 34.02 107.883 35.58H118.263ZM143.155 34.23C143.915 34.35 144.605 34.66 145.225 35.16C145.865 35.66 146.365 36.28 146.725 37.02C147.105 37.76 147.295 38.55 147.295 39.39C147.295 40.45 147.025 41.41 146.485 42.27C145.945 43.11 145.155 43.78 144.115 44.28C143.095 44.76 141.885 45 140.485 45H132.685V24.09H140.185C141.605 24.09 142.815 24.33 143.815 24.81C144.815 25.27 145.565 25.9 146.065 26.7C146.565 27.5 146.815 28.4 146.815 29.4C146.815 30.64 146.475 31.67 145.795 32.49C145.135 33.29 144.255 33.87 143.155 34.23ZM135.415 33.12H140.005C141.285 33.12 142.275 32.82 142.975 32.22C143.675 31.62 144.025 30.79 144.025 29.73C144.025 28.67 143.675 27.84 142.975 27.24C142.275 26.64 141.265 26.34 139.945 26.34H135.415V33.12ZM140.245 42.75C141.605 42.75 142.665 42.43 143.425 41.79C144.185 41.15 144.565 40.26 144.565 39.12C144.565 37.96 144.165 37.05 143.365 36.39C142.565 35.71 141.495 35.37 140.155 35.37H135.415V42.75H140.245ZM153.813 22.8V45H151.083V22.8H153.813ZM165.636 45.27C164.096 45.27 162.696 44.92 161.436 44.22C160.196 43.52 159.216 42.53 158.496 41.25C157.796 39.95 157.446 38.45 157.446 36.75C157.446 35.07 157.806 33.59 158.526 32.31C159.266 31.01 160.266 30.02 161.526 29.34C162.786 28.64 164.196 28.29 165.756 28.29C167.316 28.29 168.726 28.64 169.986 29.34C171.246 30.02 172.236 31 172.956 32.28C173.696 33.56 174.066 35.05 174.066 36.75C174.066 38.45 173.686 39.95 172.926 41.25C172.186 42.53 171.176 43.52 169.896 44.22C168.616 44.92 167.196 45.27 165.636 45.27ZM165.636 42.87C166.616 42.87 167.536 42.64 168.396 42.18C169.256 41.72 169.946 41.03 170.466 40.11C171.006 39.19 171.276 38.07 171.276 36.75C171.276 35.43 171.016 34.31 170.496 33.39C169.976 32.47 169.296 31.79 168.456 31.35C167.616 30.89 166.706 30.66 165.726 30.66C164.726 30.66 163.806 30.89 162.966 31.35C162.146 31.79 161.486 32.47 160.986 33.39C160.486 34.31 160.236 35.43 160.236 36.75C160.236 38.09 160.476 39.22 160.956 40.14C161.456 41.06 162.116 41.75 162.936 42.21C163.756 42.65 164.656 42.87 165.636 42.87ZM184.436 28.29C185.856 28.29 187.096 28.6 188.156 29.22C189.236 29.84 190.036 30.62 190.556 31.56V28.56H193.316V45.36C193.316 46.86 192.996 48.19 192.356 49.35C191.716 50.53 190.796 51.45 189.596 52.11C188.416 52.77 187.036 53.1 185.456 53.1C183.296 53.1 181.496 52.59 180.056 51.57C178.616 50.55 177.766 49.16 177.506 47.4H180.206C180.506 48.4 181.126 49.2 182.066 49.8C183.006 50.42 184.136 50.73 185.456 50.73C186.956 50.73 188.176 50.26 189.116 49.32C190.076 48.38 190.556 47.06 190.556 45.36V41.91C190.016 42.87 189.216 43.67 188.156 44.31C187.096 44.95 185.856 45.27 184.436 45.27C182.976 45.27 181.646 44.91 180.446 44.19C179.266 43.47 178.336 42.46 177.656 41.16C176.976 39.86 176.636 38.38 176.636 36.72C176.636 35.04 176.976 33.57 177.656 32.31C178.336 31.03 179.266 30.04 180.446 29.34C181.646 28.64 182.976 28.29 184.436 28.29ZM190.556 36.75C190.556 35.51 190.306 34.43 189.806 33.51C189.306 32.59 188.626 31.89 187.766 31.41C186.926 30.91 185.996 30.66 184.976 30.66C183.956 30.66 183.026 30.9 182.186 31.38C181.346 31.86 180.676 32.56 180.176 33.48C179.676 34.4 179.426 35.48 179.426 36.72C179.426 37.98 179.676 39.08 180.176 40.02C180.676 40.94 181.346 41.65 182.186 42.15C183.026 42.63 183.956 42.87 184.976 42.87C185.996 42.87 186.926 42.63 187.766 42.15C188.626 41.65 189.306 40.94 189.806 40.02C190.306 39.08 190.556 37.99 190.556 36.75ZM203.749 45.27C202.489 45.27 201.359 45.06 200.359 44.64C199.359 44.2 198.569 43.6 197.989 42.84C197.409 42.06 197.089 41.17 197.029 40.17H199.849C199.929 40.99 200.309 41.66 200.989 42.18C201.689 42.7 202.599 42.96 203.719 42.96C204.759 42.96 205.579 42.73 206.179 42.27C206.779 41.81 207.079 41.23 207.079 40.53C207.079 39.81 206.759 39.28 206.119 38.94C205.479 38.58 204.489 38.23 203.149 37.89C201.929 37.57 200.929 37.25 200.149 36.93C199.389 36.59 198.729 36.1 198.169 35.46C197.629 34.8 197.359 33.94 197.359 32.88C197.359 32.04 197.609 31.27 198.109 30.57C198.609 29.87 199.319 29.32 200.239 28.92C201.159 28.5 202.209 28.29 203.389 28.29C205.209 28.29 206.679 28.75 207.799 29.67C208.919 30.59 209.519 31.85 209.599 33.45H206.869C206.809 32.59 206.459 31.9 205.819 31.38C205.199 30.86 204.359 30.6 203.299 30.6C202.319 30.6 201.539 30.81 200.959 31.23C200.379 31.65 200.089 32.2 200.089 32.88C200.089 33.42 200.259 33.87 200.599 34.23C200.959 34.57 201.399 34.85 201.919 35.07C202.459 35.27 203.199 35.5 204.139 35.76C205.319 36.08 206.279 36.4 207.019 36.72C207.759 37.02 208.389 37.48 208.909 38.1C209.449 38.72 209.729 39.53 209.749 40.53C209.749 41.43 209.499 42.24 208.999 42.96C208.499 43.68 207.789 44.25 206.869 44.67C205.969 45.07 204.929 45.27 203.749 45.27Z" fill="black"/>
</svg>
